HIERARCHY
ROOT Hips
{
  OFFSET 0 0 0
  CHANNELS 6 Xposition Yposition Zposition Zrotation Xrotation Yrotation
  JOINT LeftUpLeg
  {
    OFFSET 4.06525 -3.90732 0.41711
    CHANNELS 3 Zrotation Xrotation Yrotation
    JOINT LeftLeg
    {
      OFFSET 0.00023 -18.4821 0.00367
      CHANNELS 3 Zrotation Xrotation Yrotation
      JOINT LeftFoot
      {
        OFFSET -0.00172 -15.2898 -0.02629
        CHANNELS 3 Zrotation Xrotation Yrotation
        JOINT LeftToeBase
        {
          OFFSET 0.36743 -3.19131 5.54287
          CHANNELS 3 Zrotation Xrotation Yrotation
          JOINT LeftToeBase2
          {
            OFFSET 0.08751 0.04849 1.36758
            CHANNELS 3 Zrotation Xrotation Yrotation
            JOINT LeftToeBase3
            {
              OFFSET 0.07484 0.06785 1.16707
            }
          }
        }
      }
    }
  }
  JOINT RightUpLeg
  {
    OFFSET -4.06526 -3.90731 0.41712
    CHANNELS 3 Zrotation Xrotation Yrotation
    JOINT RightLeg
    {
      OFFSET -0.00029 -18.4821 0.0044
      CHANNELS 3 Zrotation Xrotation Yrotation
      JOINT RightFoot
      {
        OFFSET 0.0016 -15.2898 -0.02569
        CHANNELS 3 Zrotation Xrotation Yrotation
        JOINT RightToeBase
        {
          OFFSET -0.3542 -3.19109 5.54386
          CHANNELS 3 Zrotation Xrotation Yrotation
          JOINT RightToeBase2
          {
            OFFSET -0.08424 0.04854 1.36778
            CHANNELS 3 Zrotation Xrotation Yrotation
            JOINT RightToeBase3
            {
              OFFSET -0.07205 0.0679 1.16725
            }
          }
        }
      }
    }
  }
  JOINT Spine
  {
    OFFSET 1e-005 4.46517 -0.10224
    CHANNELS 3 Zrotation Xrotation Yrotation
    JOINT Spine1
    {
      OFFSET 1e-005 4.46212 -0.1824
      CHANNELS 3 Zrotation Xrotation Yrotation
      JOINT Spine2
      {
        OFFSET 0 4.37937 -0.881
        CHANNELS 3 Zrotation Xrotation Yrotation
        JOINT Spine3
        {
          OFFSET 1e-005 4.68286 0.21414
          CHANNELS 3 Zrotation Xrotation Yrotation
          JOINT Neck
          {
            OFFSET 0 1.76964 0.82454
            CHANNELS 3 Zrotation Xrotation Yrotation
            JOINT Head
            {
              OFFSET 0 1.6961 0.93145
              CHANNELS 3 Zrotation Xrotation Yrotation
              JOINT Head_End
              {
                OFFSET 1e-005 7.8375 1.52603
              }
            }
          }
          JOINT LeftShoulder
          {
            OFFSET 1.19381 -0.75881 -0.02768
            CHANNELS 3 Zrotation Xrotation Yrotation
            JOINT LeftArm
            {
              OFFSET 5.18779 -2e-005 1e-005
              CHANNELS 3 Zrotation Xrotation Yrotation
              JOINT LeftForeArm
              {
                OFFSET 12.7364 -4e-005 2e-005
                CHANNELS 3 Zrotation Xrotation Yrotation
                JOINT LeftHand
                {
                  OFFSET 9.21452 -2e-005 1e-005
                  CHANNELS 3 Zrotation Xrotation Yrotation
                }
              }
            }
          }
          JOINT RightShoulder
          {
            OFFSET -1.19381 -0.75881 -0.02767
            CHANNELS 3 Zrotation Xrotation Yrotation
            JOINT RightArm
            {
              OFFSET -5.18779 1e-005 -1e-005
              CHANNELS 3 Zrotation Xrotation Yrotation
              JOINT RightForeArm
              {
                OFFSET -12.7364 3e-005 -2e-005
                CHANNELS 3 Zrotation Xrotation Yrotation
                JOINT RightHand
                {
                  OFFSET -9.21452 2e-005 -1e-005
                  CHANNELS 3 Zrotation Xrotation Yrotation
                }
              }
            }
          }
        }
      }
    }
  }
}
MOTION
Frames: 16
Frame Time: 	0.0166667
2.82672 35.8574 -0.484567 19.1717 4.89758 -40.794 -1.19311 -33.9585 32.2886  -9.77397 62.0317 9.03006  2.90536 -37.2913 13.0299  -0.00737949 -2.94225 -0.36002  -0 0 -0   -4.33598 -53.2441 35.7402  11.8912 65.7854 -9.16291  13.2018 -30.4405 18.7038  0.018694 0.474596 0.0153241  -0 0 -0   5.94312 4.43015 1.27505  7.13234 7.09451 0.325049  7.13024 7.09267 0.360637  7.12413 7.09468 0.396257  2.71589 7.56788 -36.5206  11.3745 -40.3473 -21.7458   -22.0368 6.19723 -5.35569  -46.1006 31.712 -3.84491  3.7753 -1.57544 -10.3029  -5.43187 -10.1769 -4.69257  7.62247 -8.80983 8.18013  -11.207 -8.76467 7.0352  -0.584212 -0.156593 1.84236  -1.65969 -14.3673 -0.977978 
2.83277 35.8607 -0.497643 19.1947 4.92111 -40.7473 -1.19217 -33.969 32.335  -9.75418 61.9786 9.01159  2.86228 -37.3027 12.8988  -0.00712774 -2.90712 -0.361117  -0 0 -0   -4.31738 -53.2539 35.829  11.8758 65.7504 -9.14966  13.1602 -30.441 18.5851  0.0159012 0.51739 0.0147692  -0 0 -0   5.94019 4.44228 1.2817  7.12625 7.11627 0.337465  7.12426 7.11423 0.373307  7.11821 7.11606 0.409214  2.73306 7.62583 -36.4881  11.4058 -40.4167 -21.802   -22.0333 6.23561 -5.32349  -46.099 31.637 -3.86787  3.781 -1.57134 -10.3157  -5.43606 -10.0989 -4.70717  7.60346 -8.7216 8.16473  -11.1942 -8.83349 7.01279  -0.562617 -0.155429 1.7745  -1.72957 -14.4172 -0.861054 
2.83782 35.8643 -0.502514 19.2142 4.94151 -40.7003 -1.20784 -33.9887 32.3335  -9.74026 61.9497 8.9977  2.85184 -37.2892 12.8223  -0.00715483 -2.92408 -0.361261  -0 0 -0   -4.3333 -53.2574 35.8471  11.8632 65.7297 -9.1384  13.1321 -30.4635 18.4812  0.014312 0.452495 0.015547  -0 0 -0   5.93617 4.44909 1.28516  7.12185 7.12863 0.344772  7.11994 7.12648 0.380807  7.11392 7.12822 0.416928  2.72775 7.64664 -36.3995  11.4055 -40.406 -21.798   -22.0293 6.2702 -5.30032  -46.1257 31.6516 -3.83851  3.78456 -1.56886 -10.3237  -5.47337 -10.1511 -4.72423  7.60876 -8.7215 8.1589  -11.1779 -8.8115 6.99759  -0.566416 -0.154648 1.78635  -1.72175 -14.3149 -0.92991 
2.84455 35.8726 -0.511622 19.2363 4.97027 -40.6294 -1.25237 -34.0116 32.2936  -9.70049 61.8686 8.95894  2.80128 -37.2727 12.7312  -0.0068794 -2.89937 -0.360612  -0 0 -0   -4.38311 -53.2608 35.832  11.8341 65.686 -9.11115  13.1136 -30.435 18.3766  0.013702 0.465739 0.0171944  -0 0 -0   5.93589 4.45453 1.2885  7.12178 7.13878 0.351893  7.11981 7.13652 0.388088  7.11375 7.13817 0.424387  2.72797 7.63529 -36.3532  11.4375 -40.4006 -21.7596   -22.028 6.26181 -5.28919  -46.1618 31.6723 -3.80689  3.7855 -1.56778 -10.3308  -5.44914 -10.167 -4.68831  7.61374 -8.71314 8.13995  -11.195 -8.6707 6.9543  -0.565827 -0.154148 1.78445  -1.63423 -14.47 -0.863344 
2.85167 35.8854 -0.518641 19.3307 5.03754 -40.4113 -1.47619 -34.1165 32.0305  -9.62653 61.7071 8.88818  2.85399 -37.1642 12.7422  -0.00638923 -2.84508 -0.359365  -0 0 -0   -4.70429 -53.3034 35.5484  11.781 65.6113 -9.06203  13.1731 -30.4591 18.3334  0.0138877 0.55986 0.0192477  -0 0 -0   5.94542 4.43429 1.29067  7.12253 7.1001 0.340926  7.12058 7.09802 0.376831  7.11456 7.09982 0.412808  2.74708 7.58746 -36.5437  11.3854 -40.3392 -21.6979   -22.0249 6.23169 -5.3132  -46.245 31.7588 -3.73774  3.78492 -1.56786 -10.3479  -5.47967 -9.96009 -4.58915  7.64513 -8.78765 8.08783  -11.2001 -8.7095 6.84233  -0.583894 -0.153889 1.8411  -1.58018 -14.3102 -0.936973 
2.85675 35.8981 -0.523602 19.3455 5.06198 -40.3812 -1.48578 -34.099 32.0678  -9.58023 61.6064 8.84364  2.83616 -37.1528 12.6285  -0.00620404 -2.84229 -0.357737  -0 0 -0   -4.73375 -53.3007 35.5217  11.7357 65.5399 -9.02202  13.0865 -30.4084 18.2435  0.0147602 0.530471 0.021243  -0 0 -0   5.93864 4.43404 1.29241  7.11164 7.10067 0.349058  7.10977 7.09846 0.384976  7.10383 7.10013 0.42099  2.75945 7.65694 -36.467  11.3732 -40.3394 -21.7476   -22.0165 6.25706 -5.29965  -46.2842 31.7879 -3.71646  3.78415 -1.56909 -10.3378  -5.50719 -10.0799 -4.62964  7.63614 -8.69249 8.07473  -11.1287 -8.85425 6.84819  -0.562544 -0.153853 1.77412  -1.65912 -14.4721 -0.88131 
2.86361 35.9143 -0.529223 19.3607 5.09131 -40.3446 -1.51018 -34.0922 32.0733  -9.5198 61.4766 8.78556  2.81973 -37.1161 12.5498  -0.00622745 -2.87464 -0.355914  -0 0 -0   -4.82014 -53.2828 35.416  11.661 65.4223 -8.95201  13.0668 -30.3749 18.187  0.016106 0.503147 0.0227168  -0 0 -0   5.93028 4.43326 1.29378  7.10025 7.10147 0.360679  7.09849 7.10047 0.396631  7.09265 7.10197 0.43271  2.76986 7.68277 -36.4071  11.3945 -40.3281 -21.7703   -22.0069 6.28417 -5.27018  -46.3281 31.7441 -3.72889  3.78267 -1.57113 -10.3297  -5.52361 -10.078 -4.65943  7.65152 -8.68536 8.07537  -11.0525 -8.99682 6.82387  -0.551286 -0.153993 1.7388  -1.78699 -14.5295 -0.86622 
2.87037 35.931 -0.533818 19.3735 5.1201 -40.3069 -1.52799 -34.0789 32.0922  -9.46395 61.3623 8.73145  2.75856 -37.0552 12.4293  -0.00604612 -2.87435 -0.354064  -0 0 -0   -4.90788 -53.259 35.3223  11.5768 65.2906 -8.86999  13.1162 -30.3281 18.1726  0.0177342 0.511912 0.0232059  -0 0 -0   5.91968 4.4313 1.29483  7.0876 7.10048 0.371105  7.08595 7.09794 0.407024  7.08022 7.09928 0.4431  2.76689 7.70078 -36.3313  11.3806 -40.28 -21.771   -21.9928 6.292 -5.24339  -46.3732 31.7297 -3.72128  3.78043 -1.57372 -10.3367  -5.53869 -10.0728 -4.66891  7.67362 -8.68481 8.07708  -10.9962 -9.0363 6.79543  -0.548504 -0.154276 1.74136  -1.81514 -14.5665 -0.908508 
2.87783 35.9481 -0.536739 19.3795 5.15095 -40.27 -1.5494 -34.0631 32.1082  -9.40804 61.2393 8.67783  2.76777 -36.9933 12.3632  -0.00586457 -2.87256 -0.352389  -0 0 -0   -4.98961 -53.2366 35.2223  11.501 65.1711 -8.79752  13.1402 -30.2788 18.1474  0.0194807 0.510992 0.0229542  -0 0 -0   5.90896 4.42637 1.29569  7.07297 7.09386 0.378565  7.0714 7.09122 0.414422  7.06575 7.09244 0.450455  2.77282 7.71959 -36.2787  11.3767 -40.2249 -21.7808   -21.9761 6.28877 -5.22739  -46.4162 31.7708 -3.68455  3.77812 -1.57675 -10.3437  -5.5475 -10.0638 -4.67107  7.69378 -8.67948 8.06973  -10.9433 -9.029 6.78113  -0.549633 -0.154671 1.74696  -1.72964 -14.5742 -0.903762 
2.88569 35.9662 -0.53876 19.3788 5.18096 -40.2364 -1.56985 -34.0432 32.1162  -9.34964 61.112 8.62113  2.73282 -36.9426 12.2888  -0.00555249 -2.84647 -0.351073  -0 0 -0   -5.06911 -53.2159 35.1134  11.4252 65.0487 -8.72576  13.1196 -30.1974 18.1291  0.0211571 0.509123 0.0225147  -0 0 -0   5.89601 4.41905 1.29643  7.05515 7.08298 0.386255  7.05366 7.08023 0.421997  7.04811 7.08132 0.457936  2.78755 7.74877 -36.2243  11.3616 -40.1525 -21.786   -21.9596 6.29928 -5.20756  -46.4418 31.7954 -3.66058  3.77648 -1.58009 -10.3351  -5.47815 -10.0311 -4.66164  7.71156 -8.63072 8.05363  -10.8802 -9.01952 6.776  -0.552487 -0.155146 1.74268  -1.71639 -14.4686 -0.935824 
2.89357 35.9862 -0.539361 19.3766 5.21706 -40.2031 -1.60643 -34.0227 32.0888  -9.2793 60.9529 8.55315  2.71672 -36.8995 12.2376  -0.00570665 -2.89181 -0.350336  -0 0 -0   -5.14829 -53.1849 35.0045  11.3357 64.9058 -8.64097  13.1548 -30.1418 18.1297  0.0225807 0.514108 0.0218872  -0 0 -0   5.88179 4.41046 1.29704  7.03543 7.07033 0.392938  7.03402 7.06749 0.428537  7.02856 7.06847 0.464352  2.79712 7.76847 -36.1808  11.3467 -40.0768 -21.7621   -21.9429 6.32399 -5.18596  -46.4645 31.783 -3.65786  3.77502 -1.58342 -10.3389  -5.56074 -10.1552 -4.65233  7.75309 -8.63185 8.04803  -10.7871 -9.07651 6.77675  -0.557945 -0.155664 1.75987  -1.79062 -14.3454 -0.928672 
2.90095 36.0074 -0.538982 19.3708 5.25476 -40.1655 -1.64884 -34 32.0318  -9.21118 60.7975 8.48711  2.6922 -36.8579 12.1888  -0.0054949 -2.87128 -0.350328  -0 0 -0   -5.21858 -53.1429 34.9113  11.2426 64.7537 -8.55446  13.1355 -30.0675 18.1022  0.0235914 0.472934 0.0210705  -0 0 -0   5.86431 4.39925 1.29749  7.01145 7.05341 0.39888  7.01011 7.05049 0.434305  7.00475 7.05135 0.469961  2.79952 7.77803 -36.1517  11.3264 -39.9811 -21.7266   -21.9219 6.32612 -5.17049  -46.4782 31.7839 -3.6414  3.77485 -1.58668 -10.326  -5.53783 -10.1276 -4.66015  7.78908 -8.63905 8.03661  -10.704 -9.00577 6.77395  -0.565217 -0.156193 1.78273  -1.83897 -14.5769 -0.888624 
2.90711 36.0305 -0.538565 19.3599 5.28874 -40.1219 -1.68577 -33.978 31.9786  -9.14619 60.6502 8.42372  2.67441 -36.7733 12.1528  -0.00543629 -2.86969 -0.351061  -0 0 -0   -5.29873 -53.0951 34.7861  11.1529 64.6053 -8.47069  13.1169 -29.9745 18.0674  0.0239807 0.460957 0.0200647  -0 0 -0   5.8457 4.38506 1.29777  6.98493 7.03127 0.403697  6.98365 7.02829 0.438919  6.97838 7.02906 0.474384  2.79967 7.80572 -36.0791  11.2903 -39.8823 -21.7608   -21.8984 6.31493 -5.16078  -46.4898 31.8191 -3.61634  3.77542 -1.58954 -10.3264  -5.5389 -10.0865 -4.60368  7.82355 -8.5816 8.00513  -10.5989 -9.04457 6.77147  -0.573719 -0.157094 1.80949  -1.79674 -14.5297 -0.902373 
2.91194 36.0545 -0.537503 19.3458 5.32822 -40.0684 -1.73667 -33.9561 31.8887  -9.07372 60.4783 8.35359  2.7099 -36.6785 12.1557  -0.00563135 -2.90511 -0.352314  -0 0 -0   -5.35878 -53.0271 34.6931  11.0591 64.4484 -8.38586  13.0654 -29.8995 17.9745  0.0235952 0.402132 0.0188685  -0 0 -0   5.82557 4.369 1.29788  6.95456 7.00642 0.409466  6.95335 7.00337 0.444494  6.94819 7.00404 0.479778  2.79462 7.83135 -36.0287  11.2736 -39.8384 -21.8009   -21.8686 6.34887 -5.13052  -46.4731 31.7406 -3.64954  3.77768 -1.59192 -10.3169  -5.4907 -9.92553 -4.60161  7.8596 -8.52047 7.96348  -10.4852 -9.00341 6.76341  -0.586562 -0.158461 1.84993  -1.94213 -14.6579 -0.971177 
2.91642 36.0786 -0.536301 19.3251 5.36432 -40.0127 -1.78853 -33.9318 31.7774  -9.00629 60.3193 8.28795  2.70913 -36.6007 12.1494  -0.00559792 -2.90016 -0.353932  -0 0 -0   -5.41615 -52.9554 34.5923  10.9646 64.2881 -8.30119  12.9881 -29.8039 17.8853  0.0224311 0.35466 0.0174817  -0 0 -0   5.80215 4.34839 1.29779  6.91975 6.97345 0.416761  6.91862 6.97032 0.451519  6.91359 6.97085 0.486551  2.78058 7.8473 -35.979  11.2165 -39.7271 -21.8471   -21.8364 6.34551 -5.10949  -46.4756 31.7564 -3.62434  3.78354 -1.59345 -10.3327  -5.53981 -10.1547 -4.6744  7.89871 -8.46981 7.9321  -10.38 -8.93552 6.75862  -0.587937 -0.159869 1.82745  -1.93051 -14.5165 -0.984314 
2.91825 36.1047 -0.533989 19.2996 5.409 -39.946 -1.83392 -33.889 31.686  -8.92614 60.1254 8.21042  2.73207 -36.5162 12.1379  -0.00575216 -2.92338 -0.355804  -0 0 -0   -5.47553 -52.8649 34.4851  10.8586 64.1061 -8.20533  12.9421 -29.7293 17.7978  0.0206465 0.318456 0.0159036  -0 0 -0   5.7768 4.32494 1.29749  6.88122 6.93626 0.423596  6.88018 6.93304 0.458062  6.87528 6.93345 0.492817  2.77145 7.88493 -35.9159  11.194 -39.6472 -21.8046   -21.7953 6.36893 -5.0779  -46.461 31.7259 -3.63009  3.79214 -1.59402 -10.3552  -5.48178 -10.2405 -4.69393  7.95713 -8.4068 7.88959  -10.2645 -8.88293 6.73934  -0.585127 -0.16088 1.84567  -1.92311 -14.5411 -1.05167 
